<?xml version="1.0" standalone="no"?>
<!DOCTYPE svg PUBLIC "-//W3C//DTD SVG 20010904//EN"
 "http://www.w3.org/TR/2001/REC-SVG-20010904/DTD/svg10.dtd">
<svg version="1.0" xmlns="http://www.w3.org/2000/svg"
 width="600.000000pt" height="600.000000pt" viewBox="0 0 600.000000 600.000000"
 preserveAspectRatio="xMidYMid meet">
<g transform="translate(0.000000,600.000000) scale(0.100000,-0.100000)"
fill="#000000" stroke="none">
<path d="M1235 5720 c-11 -5 -36 -9 -55 -9 -20 -1 -63 -8 -95 -17 -33 -9 -67
-17 -75 -19 -8 -2 -16 -4 -17 -5 -2 -2 -6 -3 -10 -4 -5 -1 -25 -10 -47 -19
-21 -9 -40 -17 -42 -17 -13 0 -165 -105 -199 -138 -14 -13 -25 -20 -25 -17 0
11 -112 -111 -126 -137 -7 -15 -22 -33 -33 -40 -10 -7 -31 -37 -46 -66 -15
-29 -31 -55 -36 -58 -5 -3 -7 -10 -4 -15 4 -5 2 -9 -2 -9 -8 0 -35 -62 -33
-75 0 -3 -6 -18 -14 -33 -7 -15 -20 -54 -27 -87 -7 -33 -13 -62 -14 -65 -14
-57 -17 -392 -16 -1873 1 -969 3 -1782 5 -1807 2 -25 9 -67 15 -95 5 -27 13
-63 16 -79 3 -16 10 -37 15 -46 5 -10 6 -21 2 -25 -4 -5 -1 -5 6 -1 7 4 12 1
12 -8 0 -25 65 -158 89 -183 12 -13 17 -23 10 -23 -6 0 2 -13 17 -29 46 -45
128 -143 136 -160 5 -12 7 -12 7 -2 1 9 11 3 28 -15 15 -16 26 -32 25 -36 -1
-5 7 -8 18 -8 11 0 25 -9 32 -20 7 -11 17 -20 23 -20 6 0 28 -12 50 -27 22
-15 45 -28 50 -28 14 -2 78 -31 88 -41 4 -4 17 -9 29 -11 12 -2 26 -9 30 -16
6 -9 8 -9 8 2 0 10 3 11 14 2 8 -7 27 -14 43 -16 15 -2 51 -9 78 -15 37 -9
488 -12 1705 -12 910 0 1720 1 1800 2 128 2 222 14 280 37 8 3 24 8 35 10 11
3 27 6 35 8 8 2 23 4 33 4 10 1 16 5 13 10 -3 4 25 23 62 41 37 18 83 45 103
61 20 16 41 29 46 29 4 0 14 9 21 20 7 12 17 18 22 15 6 -3 10 0 10 7 0 7 20
29 45 48 24 19 44 38 45 42 0 4 6 13 13 20 34 36 76 96 70 102 -3 3 -1 6 5 6
6 0 21 19 33 42 12 24 29 52 38 62 12 14 12 17 2 11 -9 -5 -5 5 7 23 12 17 21
34 20 39 -1 4 3 18 10 30 13 24 48 163 58 233 3 25 6 846 6 1825 -1 1550 -3
1788 -16 1845 -8 36 -18 80 -21 99 -3 18 -12 46 -20 62 -8 15 -15 35 -15 44 0
31 -81 177 -126 227 -19 21 -34 41 -34 46 0 7 -75 86 -122 128 -117 106 -345
219 -455 227 -17 1 -29 5 -27 8 2 3 -9 7 -24 9 -77 7 -3570 7 -3587 0z m3660
-43 c349 -87 637 -375 732 -732 l27 -100 3 -1205 c2 -663 0 -1500 -5 -1860
l-9 -655 -37 -109 c-20 -61 -52 -137 -71 -171 -140 -250 -381 -438 -647 -502
-68 -17 -187 -18 -1898 -18 l-1825 0 -85 27 c-187 59 -316 136 -444 264 -161
162 -258 361 -286 584 -14 118 -14 3519 1 3627 51 383 322 708 687 828 135 44
115 43 1997 41 1660 -2 1795 -3 1860 -19z"/>
<path d="M1175 5620 c-63 -9 -190 -52 -258 -86 -222 -113 -407 -340 -479 -589
l-23 -80 0 -1850 c0 -2090 -8 -1895 81 -2084 56 -119 113 -198 207 -288 118
-112 237 -180 395 -226 l77 -22 1825 0 1825 0 77 22 c325 95 570 345 660 675
l23 83 0 1840 0 1840 -23 80 c-95 329 -328 566 -654 667 l-73 23 -1805 1
c-993 1 -1827 -2 -1855 -6z m3673 -19 c13 -1 31 -6 40 -12 15 -9 15 -10 -1 -5
-10 3 -15 2 -12 -4 3 -5 18 -7 34 -4 19 4 33 0 45 -11 9 -10 19 -15 22 -12 14
14 199 -87 189 -103 -3 -4 1 -7 8 -6 28 3 147 -99 147 -126 0 -10 6 -15 13
-13 16 6 71 -71 61 -87 -4 -6 -3 -8 3 -5 13 8 33 -14 38 -40 1 -10 7 -17 11
-16 5 0 19 -19 32 -44 13 -25 19 -42 13 -39 -5 3 1 -15 15 -41 13 -27 24 -54
24 -61 0 -7 6 -21 12 -32 10 -15 10 -22 0 -32 -17 -17 -15 -33 3 -18 12 10 13
6 8 -26 -4 -26 -3 -35 5 -30 9 5 11 -450 9 -1800 -2 -1435 -5 -1808 -14 -1812
-15 -4 -18 -32 -4 -32 9 0 5 -60 -6 -90 -3 -8 -7 -20 -8 -26 -9 -40 -18 -55
-31 -50 -11 4 -12 2 -1 -15 10 -16 9 -21 -1 -28 -7 -4 -12 -12 -11 -17 4 -22
-2 -33 -17 -27 -12 4 -14 0 -8 -22 4 -18 3 -26 -3 -22 -9 6 -22 -16 -27 -46 0
-4 -8 -12 -16 -17 -8 -5 -11 -10 -7 -10 4 0 -4 -15 -18 -34 -18 -23 -32 -33
-43 -29 -14 4 -15 3 -2 -6 13 -9 12 -13 -5 -30 -11 -11 -25 -26 -32 -33 -53
-58 -206 -168 -243 -174 -8 -2 -16 -8 -18 -14 -2 -5 -8 -8 -13 -4 -5 3 -9 1
-9 -3 0 -14 -65 -34 -86 -27 -16 5 -16 4 -4 -5 12 -9 11 -11 -10 -12 -14 -1
-31 -2 -37 -2 -7 1 -13 -3 -13 -7 0 -4 -17 -11 -37 -14 -21 -4 -846 -8 -1833
-9 -1391 -2 -1804 0 -1837 9 -22 7 -44 10 -47 7 -3 -4 -6 -1 -6 5 0 6 -6 9
-14 6 -8 -3 -25 0 -38 7 -13 7 -27 14 -33 14 -23 2 -155 63 -155 70 0 4 5 3
10 0 6 -3 10 -1 10 5 0 7 -7 9 -16 6 -10 -4 -25 1 -36 11 -11 10 -23 17 -27
17 -11 -3 -60 44 -53 51 4 4 3 6 -3 5 -24 -5 -37 1 -32 14 4 11 1 13 -10 9
-11 -4 -14 -2 -9 5 4 7 1 12 -8 12 -9 0 -23 14 -31 30 -9 18 -21 28 -27 24 -6
-4 -8 -3 -4 4 3 5 3 12 -1 14 -11 4 -60 71 -61 82 0 5 -4 12 -9 15 -17 13 -63
91 -67 116 -3 15 -9 32 -14 38 -6 7 -17 34 -26 61 -13 37 -14 52 -5 62 7 8 9
17 5 21 -3 3 -6 1 -6 -5 0 -16 -16 -15 -19 1 -2 6 -4 125 -6 263 -2 138 -4
282 -5 320 -1 38 -1 76 -1 84 1 17 1 1567 0 2135 -1 768 1 905 13 905 3 0 8
21 11 48 6 54 31 145 38 138 3 -3 10 8 16 24 7 19 8 28 1 24 -6 -4 -5 2 1 15
7 11 17 20 23 18 6 -1 13 5 15 13 4 13 3 13 -7 0 -10 -13 -11 -12 -6 3 3 10 6
23 6 28 0 5 6 8 12 7 7 -2 12 3 11 9 -3 15 27 54 37 48 4 -2 6 6 6 18 -1 16 4
21 16 19 12 -2 16 2 12 12 -3 8 0 17 7 22 8 5 10 3 4 -6 -5 -9 -4 -11 3 -6 7
4 12 16 12 27 0 11 7 19 16 19 8 0 12 5 9 10 -3 6 3 10 13 10 13 0 19 6 18 18
0 9 5 16 11 14 7 -1 22 7 33 18 11 11 17 20 14 20 -3 0 1 7 10 15 8 8 19 15
24 15 5 0 17 9 28 21 10 11 26 18 36 16 10 -3 21 0 25 5 3 7 1 8 -5 4 -7 -4
-12 -3 -12 2 0 5 12 14 28 21 15 7 27 12 27 10 0 -1 20 8 44 20 23 12 40 18
37 13 -3 -6 2 -8 14 -5 11 3 20 9 20 14 0 13 69 22 83 11 8 -7 18 -8 27 -1 12
8 11 9 -4 7 -10 -2 -21 2 -23 9 -3 8 14 13 54 15 51 4 3600 2 3661 -1z"/>
<path d="M1195 5580 c-3 -6 1 -7 9 -4 18 7 21 14 7 14 -6 0 -13 -4 -16 -10z"/>
<path d="M4788 5583 c7 -3 16 -2 19 1 4 3 -2 6 -13 5 -11 0 -14 -3 -6 -6z"/>
<path d="M927 5513 c-4 -3 -7 -11 -7 -17 0 -6 5 -5 12 2 6 6 9 14 7 17 -3 3
-9 2 -12 -2z"/>
<path d="M5063 5495 c0 -8 4 -12 9 -9 4 3 8 9 8 15 0 5 -4 9 -8 9 -5 0 -9 -7
-9 -15z"/>
<path d="M5255 5361 c-6 -11 13 -26 22 -17 4 3 1 6 -6 6 -7 0 -9 5 -6 10 3 6
4 10 1 10 -3 0 -7 -4 -11 -9z"/>
<path d="M5450 5110 c0 -5 5 -10 11 -10 5 0 7 5 4 10 -3 6 -8 10 -11 10 -2 0
-4 -4 -4 -10z"/>
<path d="M442 4525 c0 -16 2 -22 5 -12 2 9 2 23 0 30 -3 6 -5 -1 -5 -18z"/>
<path d="M443 4380 c0 -36 2 -50 4 -32 2 17 2 47 0 65 -2 17 -4 3 -4 -33z"/>
<path d="M1723 3891 c-18 -5 -33 -6 -33 -4 0 3 -7 0 -15 -7 -12 -10 -15 -10
-15 0 0 9 -3 10 -14 1 -7 -6 -40 -25 -72 -41 -33 -16 -68 -38 -79 -48 -11 -10
-26 -17 -33 -14 -7 2 -11 0 -10 -5 5 -13 -31 -58 -39 -49 -5 4 -9 35 -10 69
-1 34 -2 66 -3 71 0 5 -3 6 -7 3 -3 -4 -11 -3 -18 3 -13 11 -439 15 -456 4 -8
-5 -9 -3 -4 5 6 10 3 11 -13 2 -12 -6 -24 -16 -28 -22 -3 -6 -7 -438 -7 -961
0 -829 2 -951 15 -964 12 -13 55 -15 244 -16 126 -1 239 2 251 6 11 4 23 17
26 29 3 12 4 138 3 280 -2 145 1 260 7 264 10 6 53 -37 49 -50 -1 -5 2 -6 7
-3 5 3 20 -5 32 -19 13 -13 29 -25 34 -25 6 0 27 -9 48 -20 20 -11 37 -17 37
-14 0 4 7 0 17 -7 12 -10 52 -14 157 -14 151 0 185 5 252 36 24 11 54 23 67
28 12 5 44 25 70 45 26 20 52 36 57 36 6 0 10 4 10 9 0 5 16 26 35 47 19 21
35 42 35 47 0 4 5 5 10 2 6 -3 10 0 11 7 0 7 4 3 9 -8 5 -12 7 -33 6 -48 -2
-14 0 -23 5 -21 4 3 11 -9 14 -27 4 -18 15 -43 23 -56 14 -21 113 -92 137 -98
43 -11 73 -17 88 -16 9 0 15 -2 13 -7 -7 -10 132 6 184 22 25 7 51 12 59 9 8
-3 11 0 7 6 -7 12 49 37 92 41 7 0 11 5 8 10 -3 5 19 25 50 45 58 39 59 39
103 -2 52 -50 156 -93 236 -99 33 -2 69 -6 80 -7 65 -9 187 43 259 112 49 46
106 150 106 191 0 20 3 22 9 11 6 -8 7 -18 4 -24 -3 -5 -1 -6 5 -2 6 3 16 -3
22 -14 10 -19 7 -24 -13 -21 -5 1 -6 -3 -2 -9 5 -8 11 -8 20 0 10 8 15 8 20 0
4 -7 27 -20 51 -30 46 -20 56 -31 27 -28 -10 1 -54 -16 -97 -38 -113 -56 -112
-55 -124 -83 -7 -14 -23 -46 -37 -71 -14 -25 -26 -47 -27 -50 0 -3 -3 -11 -6
-19 -3 -8 0 -17 6 -19 15 -5 16 -52 0 -52 -7 0 -5 -6 4 -17 9 -10 21 -35 29
-55 7 -21 17 -38 22 -38 4 0 6 -3 4 -7 -2 -5 10 -21 26 -38 17 -16 27 -23 23
-15 -4 8 1 6 11 -6 10 -12 26 -24 36 -27 10 -4 15 -11 12 -17 -3 -5 1 -10 10
-10 31 0 125 -31 120 -40 -3 -4 5 -8 18 -9 12 0 76 -5 142 -11 106 -8 675 -10
632 -2 -32 6 -7 21 27 15 19 -3 36 -1 40 6 4 6 16 11 27 11 11 0 38 9 60 19
22 11 48 17 56 14 12 -5 14 -3 8 7 -5 8 -4 11 3 6 13 -8 84 33 76 45 -3 5 2 6
11 3 11 -5 18 0 22 15 3 12 11 20 17 18 14 -5 48 30 36 38 -5 3 0 15 10 25 11
11 20 27 20 35 0 8 5 15 11 15 5 0 7 -5 3 -12 -4 -7 -3 -8 5 -4 9 6 9 11 -1
24 -11 13 -10 15 4 9 10 -3 20 -1 24 5 4 7 3 8 -4 4 -8 -5 -12 1 -12 17 0 14
6 27 14 30 11 4 13 32 12 137 -2 82 -7 134 -14 138 -6 4 -13 21 -17 37 -6 29
-6 29 10 10 10 -11 15 -13 11 -5 -3 8 -9 23 -12 33 -4 9 -10 17 -15 17 -5 0
-5 -8 -2 -17 6 -16 5 -16 -10 -4 -9 7 -17 18 -17 23 0 16 -94 104 -135 126
-128 68 -169 74 -495 77 -194 1 -272 6 -292 15 -33 16 -34 23 -7 49 17 15 27
17 52 10 17 -5 108 -7 202 -4 198 5 215 7 215 20 0 5 5 4 12 -3 7 -7 17 -12
22 -12 6 0 4 5 -4 10 -13 8 -12 10 5 11 11 1 28 0 39 -1 11 -1 15 3 12 9 -5 7
2 11 18 11 14 0 27 4 31 10 3 5 12 7 20 3 8 -3 15 0 15 7 0 8 8 10 21 7 12 -3
18 -3 15 0 -10 11 15 45 30 39 8 -3 14 -1 14 4 0 4 17 26 39 47 21 21 42 48
45 61 4 12 11 22 15 22 4 0 13 18 20 41 11 36 14 39 29 28 14 -11 15 -11 5 1
-15 17 -17 54 -3 45 6 -3 10 1 10 10 0 10 -5 13 -12 9 -8 -5 -9 3 -5 29 3 20
2 39 -3 42 -5 3 -8 19 -6 35 2 16 -1 27 -5 24 -5 -3 -9 0 -9 5 0 17 -70 105
-90 115 -11 5 -22 16 -25 25 -5 13 -4 14 6 4 19 -19 183 -17 202 2 8 8 17 11
21 8 3 -4 6 1 6 11 0 10 -5 14 -12 10 -7 -4 -8 -3 -4 4 9 15 17 229 9 260 -3
12 -12 22 -20 22 -8 0 -12 4 -8 9 3 6 -168 10 -440 10 -283 0 -445 -3 -445 -9
0 -6 -7 -6 -18 1 -13 8 -32 6 -79 -10 -34 -12 -68 -21 -76 -21 -7 0 -30 -9
-52 -20 -22 -11 -49 -17 -64 -15 -19 4 -21 3 -8 -3 17 -7 17 -9 3 -21 -9 -7
-23 -11 -31 -7 -9 3 -14 2 -11 -3 8 -13 -51 -64 -64 -56 -9 5 -10 1 -6 -13 4
-12 2 -23 -5 -28 -7 -4 -9 -3 -6 3 3 5 0 10 -8 10 -8 0 -12 -3 -10 -7 5 -8
-27 -96 -39 -107 -5 -5 -6 -1 -1 7 6 11 5 12 -3 5 -14 -13 -33 -96 -25 -109 3
-5 2 -7 -3 -3 -5 3 -8 -42 -6 -106 2 -62 8 -115 14 -118 5 -3 10 -20 10 -37 1
-18 5 -32 10 -32 4 0 8 -5 8 -10 0 -6 -74 -9 -211 -6 -116 2 -205 0 -199 -4 8
-5 7 -9 -4 -13 -9 -4 -15 -10 -14 -14 3 -15 -24 -103 -32 -103 -5 0 -7 -11 -6
-24 2 -14 -4 -39 -12 -56 -14 -28 -13 -32 4 -45 10 -8 36 -15 57 -15 46 0 91
-24 106 -57 33 -71 -5 -144 -72 -139 -46 4 -85 29 -93 61 -3 14 -10 25 -15 25
-5 0 -7 12 -3 28 4 21 3 24 -5 12 -8 -11 -11 -11 -12 -2 -2 17 -4 23 -18 56
-6 16 -10 31 -7 33 2 3 -4 23 -14 46 -10 23 -22 69 -25 103 l-7 60 43 13 c24
7 65 24 92 37 26 14 47 21 47 18 0 -4 7 -1 15 6 8 6 19 9 25 5 5 -3 13 0 16 9
3 8 20 18 37 22 18 4 38 15 45 25 7 11 19 19 25 19 17 0 123 105 152 150 49
77 66 189 39 254 -6 15 -4 17 7 11 8 -5 2 7 -13 27 -15 19 -24 39 -20 43 4 5
1 4 -7 0 -11 -6 -13 -4 -8 8 3 10 2 17 -4 17 -17 0 -59 37 -51 44 3 4 -1 4
-11 0 -10 -3 -17 -1 -17 5 0 6 -7 11 -15 11 -8 0 -15 5 -15 11 0 5 -4 8 -9 5
-5 -4 -37 1 -71 10 -66 17 -263 17 -253 0 3 -5 -6 -7 -21 -4 -15 3 -24 3 -21
0 7 -8 -79 -39 -113 -41 -7 -1 -10 -5 -7 -11 3 -5 -3 -10 -14 -10 -12 0 -21
-5 -21 -12 0 -6 -3 -9 -6 -6 -5 6 -18 -4 -83 -64 -16 -15 -31 -24 -34 -22 -3
3 -8 -4 -12 -15 -3 -12 -13 -21 -20 -21 -8 0 -12 -6 -9 -13 2 -7 -5 -22 -16
-32 -23 -21 -53 -84 -72 -149 -6 -22 -14 -48 -16 -56 -4 -11 -10 -172 -12
-312 0 -3 -23 -14 -52 -24 -76 -25 -154 -75 -236 -151 -7 -7 -18 -13 -23 -13
-6 0 -7 -4 -4 -10 3 -5 1 -10 -5 -10 -9 0 -10 22 -6 76 8 96 9 284 2 291 -3 3
-1 15 5 26 8 14 8 18 0 13 -7 -5 -11 2 -11 17 0 24 -53 197 -67 220 -7 12 -9
17 -12 36 0 5 -8 16 -16 25 -9 8 -24 34 -35 58 -11 24 -20 38 -20 32 0 -7 -19
7 -43 30 -29 28 -40 45 -33 54 6 9 4 11 -8 6 -9 -3 -16 -1 -16 6 0 6 -4 9 -9
6 -5 -3 -25 6 -46 20 -33 22 -93 48 -135 59 -8 2 -15 4 -15 6 0 12 -251 20
-292 10z m2524 -17 c-3 -3 -12 -4 -19 -1 -8 3 -5 6 6 6 11 1 17 -2 13 -5z
m756 -1 c-7 -2 -19 -2 -25 0 -7 3 -2 5 12 5 14 0 19 -2 13 -5z m-2954 -32
c140 -49 249 -147 316 -286 92 -190 116 -410 69 -644 -32 -158 -86 -263 -189
-367 -126 -127 -253 -178 -440 -177 -126 1 -210 26 -292 87 -52 38 -123 124
-123 148 0 4 -3 8 -7 8 -5 0 -7 -151 -5 -335 l3 -335 -246 0 -245 0 0 955 0
955 246 0 246 0 -4 -120 c-1 -66 -1 -120 2 -120 3 0 16 20 29 45 48 90 158
170 279 200 87 22 279 14 361 -14z m1499 13 c144 -42 218 -136 209 -265 -11
-170 -159 -306 -449 -414 l-88 -33 -6 34 c-6 32 -1 39 79 125 145 153 175 253
88 289 -37 15 -90 7 -124 -20 -48 -38 -62 -98 -62 -270 0 -164 14 -256 60
-395 53 -162 93 -214 167 -222 63 -7 99 24 105 93 9 92 -42 144 -142 144 -33
0 -45 4 -42 13 3 6 18 58 34 114 l28 103 215 0 c118 0 225 -3 236 -6 27 -7 29
-36 8 -126 l-16 -68 -65 0 c-35 0 -73 5 -84 10 -11 6 -50 10 -87 8 -68 -3 -68
-7 3 -27 69 -18 133 -68 162 -124 22 -45 25 -60 21 -126 -6 -91 -37 -161 -101
-222 -145 -142 -374 -138 -553 7 l-54 44 -52 -41 c-237 -187 -537 -180 -641
16 -17 31 -22 58 -22 116 1 70 4 84 43 162 57 116 143 196 285 266 56 28 107
51 112 51 6 0 10 57 10 152 0 171 9 216 61 318 100 192 294 307 522 309 51 1
106 -6 140 -15z m1620 -141 l-3 -146 -98 0 c-58 1 -104 6 -110 12 -13 13 -167
15 -167 2 0 -5 19 -12 43 -16 107 -18 215 -103 238 -189 6 -23 9 -68 6 -101
-13 -162 -138 -281 -352 -335 -103 -27 -304 -37 -405 -21 -75 12 -75 12 -97
-14 -29 -33 -29 -56 -2 -81 19 -18 45 -19 333 -25 332 -6 360 -10 466 -64 163
-83 237 -292 173 -490 -55 -171 -209 -274 -455 -305 -135 -17 -649 -8 -738 13
-133 31 -233 99 -271 182 -25 54 -25 157 0 210 41 89 142 148 285 167 90 12
102 22 37 31 -64 8 -145 51 -177 92 -21 28 -29 51 -32 93 -7 111 61 186 196
218 l72 18 -69 32 c-38 17 -90 51 -115 74 -38 35 -44 45 -35 61 8 16 6 19 -14
19 -20 0 -29 11 -53 63 -27 57 -29 71 -29 182 0 118 1 121 37 196 70 144 202
233 382 259 28 4 255 8 504 9 l453 1 -3 -147z m-1775 -152 c17 -14 25 -91 9
-91 -5 0 -15 -15 -24 -32 -22 -47 -139 -178 -159 -178 -11 0 -3 200 10 233 13
33 36 59 45 50 3 -4 6 -1 6 6 0 26 85 36 113 12z m537 -526 c13 -14 27 -25 31
-25 5 0 19 -11 33 -25 18 -18 21 -25 10 -25 -8 0 -26 -7 -39 -16 -13 -9 -29
-13 -35 -9 -5 3 -10 1 -10 -5 0 -6 -4 -8 -10 -5 -5 3 -10 -1 -10 -9 0 -10 -9
-16 -22 -17 -13 0 -17 -3 -10 -6 6 -2 9 -9 6 -14 -4 -6 -10 -6 -18 0 -10 8
-11 3 -8 -21 3 -21 1 -29 -7 -24 -7 5 -11 -3 -12 -21 0 -15 -3 -22 -6 -15 -2
6 -9 10 -14 6 -9 -5 -13 9 -10 35 2 7 -2 10 -8 6 -6 -3 -11 -2 -11 3 0 14 -72
82 -87 82 -7 0 -13 5 -13 10 0 7 7 7 20 0 26 -14 153 -6 158 9 2 6 9 8 15 4 6
-4 8 0 4 10 -3 10 -2 17 4 17 6 0 7 5 4 10 -8 13 4 70 14 70 4 0 18 -11 31
-25z"/>
<path d="M1572 3489 c-134 -52 -201 -196 -189 -407 12 -222 119 -342 302 -342
144 0 248 81 290 226 19 66 20 241 1 312 -19 68 -57 133 -102 170 -74 61 -203
79 -302 41z m183 -10 c-4 -6 -1 -9 6 -8 8 2 35 -7 62 -19 35 -17 47 -28 47
-45 0 -18 2 -19 10 -7 5 8 10 10 10 4 0 -6 9 -22 21 -35 11 -13 18 -31 16 -41
-3 -10 -2 -16 3 -13 13 8 30 -75 34 -165 4 -76 0 -112 -17 -186 -9 -37 -47
-104 -59 -104 -6 0 -8 -3 -5 -6 4 -4 -10 -19 -31 -35 -29 -22 -40 -25 -51 -16
-12 9 -13 9 -7 -1 5 -8 -2 -16 -19 -22 -34 -13 -172 -13 -180 0 -3 5 -12 7
-20 4 -23 -9 -124 95 -130 136 -3 19 -10 37 -14 40 -28 18 -32 240 -6 310 15
41 22 66 24 81 2 13 59 69 70 69 7 0 9 4 6 10 -10 16 66 42 150 50 44 4 81 8
83 9 2 0 0 -4 -3 -10z"/>
<path d="M2811 2933 c-18 -21 -47 -66 -63 -101 -26 -54 -30 -72 -26 -123 4
-51 9 -65 36 -92 32 -31 34 -32 120 -31 48 0 100 6 115 12 l28 12 -19 28 c-34
49 -88 166 -116 250 -15 45 -31 82 -35 82 -4 0 -22 -17 -40 -37z m52 -57 c1
-19 5 -32 8 -30 6 3 39 -73 39 -90 0 -4 9 -19 20 -33 11 -14 18 -29 15 -33 -3
-4 2 -13 10 -20 8 -7 12 -16 9 -21 -3 -5 -2 -9 3 -8 20 3 27 -2 13 -11 -13 -9
-13 -10 0 -11 8 -1 -16 -7 -55 -13 -122 -20 -179 14 -179 107 1 64 13 127 25
127 5 0 9 7 9 15 0 9 7 18 15 21 8 4 15 11 15 17 0 6 8 19 17 29 15 17 18 17
25 3 5 -8 10 -31 11 -49z"/>
<path d="M4341 3575 c-85 -26 -131 -95 -131 -194 1 -104 47 -167 143 -196 139
-41 283 14 315 122 38 128 -21 247 -136 272 -69 14 -136 13 -191 -4z m208 -29
c10 -9 25 -16 34 -16 25 0 57 -49 57 -87 0 -21 4 -32 10 -28 15 9 5 -87 -11
-117 -7 -13 -13 -26 -14 -30 0 -3 -4 -10 -9 -15 -5 -4 -7 -3 -3 3 3 6 0 11 -8
11 -8 0 -12 -4 -10 -8 9 -14 -7 -39 -24 -39 -9 0 -22 -5 -27 -10 -6 -6 -47
-12 -90 -13 -152 -3 -228 65 -220 197 2 34 9 73 16 88 12 25 14 26 26 10 13
-16 13 -16 14 1 0 10 7 20 15 23 8 4 12 10 9 15 -20 33 199 47 235 15z m-249
-20 c0 -3 -4 -8 -10 -11 -5 -3 -10 -1 -10 4 0 6 5 11 10 11 6 0 10 -2 10 -4z"/>
<path d="M4910 3490 c-13 -8 -12 -10 3 -10 9 0 17 5 17 10 0 12 -1 12 -20 0z"/>
<path d="M4958 3473 c7 -3 16 -2 19 1 4 3 -2 6 -13 5 -11 0 -14 -3 -6 -6z"/>
<path d="M4152 3440 c0 -14 2 -19 5 -12 2 6 2 18 0 25 -3 6 -5 1 -5 -13z"/>
<path d="M5016 3417 c3 -10 9 -15 12 -12 3 3 0 11 -7 18 -10 9 -11 8 -5 -6z"/>
<path d="M4328 3113 c6 -2 18 -2 25 0 6 3 1 5 -13 5 -14 0 -19 -2 -12 -5z"/>
<path d="M4758 2993 c7 -3 16 -2 19 1 4 3 -2 6 -13 5 -11 0 -14 -3 -6 -6z"/>
<path d="M4095 2600 c-3 -5 1 -10 9 -10 9 0 16 5 16 10 0 6 -4 10 -9 10 -6 0
-13 -4 -16 -10z"/>
<path d="M4192 2483 c-12 -2 -38 -19 -57 -37 -28 -27 -35 -41 -35 -72 0 -48
22 -82 66 -100 48 -20 520 -20 568 0 93 39 102 152 15 196 -35 18 -58 20 -286
19 -136 -1 -258 -4 -271 -6z m559 -44 c42 -35 47 -77 15 -116 -23 -27 -74 -55
-61 -33 3 5 1 11 -5 15 -5 3 -10 -1 -10 -11 0 -13 -3 -14 -14 -5 -11 9 -15 9
-18 -1 -3 -9 -51 -12 -192 -13 -102 0 -182 1 -176 3 26 9 6 19 -34 18 -24 0
-41 -5 -38 -10 3 -5 -2 -6 -12 -3 -10 4 -22 7 -26 7 -18 0 -60 48 -60 68 0 35
19 74 40 79 11 3 20 10 20 16 0 6 3 8 6 5 3 -3 17 -3 32 1 15 4 134 7 266 6
236 -2 239 -2 267 -26z"/>
<path d="M4438 2333 c7 -3 16 -2 19 1 4 3 -2 6 -13 5 -11 0 -14 -3 -6 -6z"/>
<path d="M4610 2289 c0 -5 5 -7 10 -4 6 3 10 8 10 11 0 2 -4 4 -10 4 -5 0 -10
-5 -10 -11z"/>
<path d="M3776 2098 c3 -5 10 -6 15 -3 13 9 11 12 -6 12 -8 0 -12 -4 -9 -9z"/>
<path d="M3940 2950 c0 -5 7 -7 15 -4 8 4 15 8 15 10 0 2 -7 4 -15 4 -8 0 -15
-4 -15 -10z"/>
<path d="M3796 3643 c-6 -14 -5 -15 5 -6 7 7 10 15 7 18 -3 3 -9 -2 -12 -12z"/>
<path d="M442 3590 c0 -14 2 -19 5 -12 2 6 2 18 0 25 -3 6 -5 1 -5 -13z"/>
<path d="M3751 3444 c0 -11 3 -14 6 -6 3 7 2 16 -1 19 -3 4 -6 -2 -5 -13z"/>
<path d="M442 3310 c0 -14 2 -19 5 -12 2 6 2 18 0 25 -3 6 -5 1 -5 -13z"/>
<path d="M443 3095 c0 -27 2 -38 4 -22 2 15 2 37 0 50 -2 12 -4 0 -4 -28z"/>
<path d="M443 2865 c0 -22 2 -30 4 -17 2 12 2 30 0 40 -3 9 -5 -1 -4 -23z"/>
<path d="M4940 2806 c0 -2 9 -6 20 -9 11 -3 18 -1 14 4 -5 9 -34 13 -34 5z"/>
<path d="M5030 2770 c0 -6 7 -10 15 -10 8 0 15 2 15 4 0 2 -7 6 -15 10 -8 3
-15 1 -15 -4z"/>
<path d="M5110 2710 c0 -5 5 -10 10 -10 6 0 10 5 10 10 0 6 -4 10 -10 10 -5 0
-10 -4 -10 -10z"/>
<path d="M441 2614 c0 -11 3 -14 6 -6 3 7 2 16 -1 19 -3 4 -6 -2 -5 -13z"/>
<path d="M5241 2164 c0 -11 3 -14 6 -6 3 7 2 16 -1 19 -3 4 -6 -2 -5 -13z"/>
<path d="M442 1660 c0 -14 2 -19 5 -12 2 6 2 18 0 25 -3 6 -5 1 -5 -13z"/>
<path d="M452 1280 c0 -19 2 -27 5 -17 2 9 2 25 0 35 -3 9 -5 1 -5 -18z"/>
<path d="M530 930 c0 -5 5 -10 10 -10 6 0 10 5 10 10 0 6 -4 10 -10 10 -5 0
-10 -4 -10 -10z"/>
<path d="M5370 794 c0 -8 5 -12 10 -9 6 4 8 11 5 16 -9 14 -15 11 -15 -7z"/>
<path d="M559 5273 c-13 -16 -12 -17 4 -4 9 7 17 15 17 17 0 8 -8 3 -21 -13z"/>
<path d="M5585 4969 c-4 -6 -5 -12 -2 -15 2 -3 7 2 10 11 7 17 1 20 -8 4z"/>
<path d="M910 450 c-9 -6 -10 -10 -3 -10 6 0 15 5 18 10 8 12 4 12 -15 0z"/>
<path d="M3398 283 c12 -2 32 -2 45 0 12 2 2 4 -23 4 -25 0 -35 -2 -22 -4z"/>
</g>
</svg>
